<svg width="221" height="221" viewBox="0 0 221 221" fill="none" xmlns="http://www.w3.org/2000/svg">
<g clip-path="url(#clip0_204_4)">
<path d="M-5.81749 190.606C-4.67421 188.191 -3.10188 184.083 -3.23869 179.667C-3.2905 177.972 -4.90635 176.74 -6.52583 177.09L-7.73185 177.353C-8.97449 177.63 -9.83038 178.77 -9.72737 180.069C-9.47965 183.223 -10.1607 186.458 -10.7442 188.534C-11.1145 189.841 -10.4505 191.265 -9.19207 191.813C-7.89397 192.392 -6.40927 191.867 -5.81749 190.606Z" fill="#B21818"/>
<path d="M-1.569 195.152L-0.0958361 187.62C0.95576 186.252 2.96282 186.084 4.22935 187.244L6.42482 189.269C7.66666 190.418 7.69256 192.38 6.48148 193.562L2.80312 199.076C1.73473 200.101 0.0798255 200.184 -1.07053 199.274C-1.67342 198.787 -2.0627 198.084 -2.15576 197.314C-2.24883 196.545 -2.03835 195.769 -1.569 195.152Z" fill="#B21818"/>
<path d="M3.37093 184.344L7.30308 179.841C8.99057 178.695 11.3087 179.232 12.3036 181.004L14.0245 184.061C15.0067 185.797 14.3022 187.997 12.5007 188.875L7.91447 191.403C7.15798 191.772 6.29368 191.854 5.48128 191.635C4.66889 191.415 3.96332 190.909 3.49498 190.21C2.43145 188.63 1.78058 185.415 3.37093 184.344Z" fill="#B21818"/>
<path d="M27.4545 186.656L24.6613 187.492C22.6972 187.938 20.9638 188.02 20.3653 187.846L13.3075 187.51C12.4136 187.254 11.6704 185.969 11.5798 185.047L11.2677 181.85C11.109 180.238 12.6603 178.995 14.1976 179.483L27.9438 183.212C29.7961 183.767 29.1069 185.645 27.4545 186.656Z" fill="#B21818"/>
<path d="M2.13724 206.651L7.04833 199.18C8.09992 197.811 10.107 197.643 11.3735 198.804L13.569 200.828C14.8108 201.977 14.8367 203.939 13.6256 205.121L6.51908 210.568C5.45069 211.592 3.79578 211.676 2.64542 210.766C1.37606 209.762 1.15061 207.923 2.13724 206.651Z" fill="#B21818"/>
<path d="M11.5555 196.991L17.4303 190.046C19.1178 188.9 21.4359 189.436 22.4308 191.209L24.1517 194.265C25.1339 196.002 24.4294 198.202 22.628 199.079L15.0322 202.968C14.2757 203.336 13.4114 203.418 12.599 203.199C11.7866 202.98 11.0811 202.474 10.6127 201.775C10.3603 201.399 10.1845 200.977 10.0953 200.533C10.006 200.089 10.0052 199.632 10.0927 199.187C10.1803 198.743 10.3545 198.32 10.6055 197.943C10.8565 197.566 11.1793 197.243 11.5555 196.991Z" fill="#B21818"/>
<path d="M41.3406 198.764L38.5475 199.6C36.5833 200.046 34.8499 200.128 34.2514 199.954L23.4442 197.707C22.5503 197.451 21.8072 196.166 21.7165 195.245L21.4044 192.047C21.2457 190.435 22.797 189.193 24.3343 189.68L41.8397 195.313C43.68 195.892 42.9931 197.753 41.3406 198.764Z" fill="#B21818"/>
<path d="M5.33535 219.58L14.2071 210.697C15.3927 209.442 17.4074 209.484 18.5507 210.787L20.5258 213.027C21.6466 214.301 21.4638 216.253 20.1307 217.296L9.29137 223.948C8.13312 224.857 6.47355 224.773 5.41953 223.727C4.26371 222.589 4.22223 220.747 5.33535 219.58Z" fill="#B21818"/>
<path d="M18.9248 208.981L24.7114 204.273C25.1362 204.043 25.6042 203.903 26.0857 203.864C26.5671 203.824 27.0516 203.885 27.5082 204.043C27.9648 204.201 28.3836 204.452 28.7379 204.78C29.0923 205.109 29.3745 205.507 29.5666 205.95L30.9511 209.173C31.7382 210.998 30.8167 213.117 28.9269 213.8L21.746 215.293C20.9549 215.58 20.0869 215.571 19.3017 215.268C18.5165 214.966 17.8669 214.39 17.4727 213.647C17.0482 212.835 16.9626 211.888 17.2348 211.014C17.507 210.139 18.1147 209.408 18.9248 208.981Z" fill="#B21818"/>
<path d="M44.6962 213.243L41.8378 213.774C39.839 214.014 38.2855 213.787 37.7034 213.554L29.8978 212.509C29.0322 212.169 28.4303 210.806 28.4376 209.871L28.4688 206.657C28.4866 205.032 30.148 203.953 31.6286 204.608L45.5641 209.849C47.326 210.628 46.4469 212.42 44.6962 213.243Z" fill="#B21818"/>
<path d="M6.41028 231.14L19.4034 222.24C21.2658 220.959 23.8172 222.26 23.8644 224.531L23.9775 229.198C23.99 229.786 23.8208 230.363 23.4932 230.852C23.1655 231.34 22.6953 231.715 22.1465 231.926L9.22201 236.918C8.83869 237.067 8.42757 237.131 8.01702 237.106C7.60648 237.08 7.20628 236.967 6.84406 236.772C6.48183 236.577 6.1662 236.306 5.91894 235.977C5.67169 235.648 5.4987 235.27 5.41191 234.868L5.23988 234.102C4.98447 232.967 5.44996 231.803 6.41028 231.14Z" fill="#B21818"/>
<path d="M22.148 224.012L25.5204 222.078C26.56 221.478 27.8771 221.64 28.7589 222.462L34.0562 227.888C35.3804 229.144 35.8602 231.856 33.9778 233.291L32.8408 234.508C31.9058 235.043 30.7496 234.99 29.8702 234.351L21.9066 228.58C20.2968 227.436 20.429 224.996 22.148 224.012Z" fill="#B21818"/>
<path d="M8.03783 238.636C6.93362 239.735 6.27323 241.188 6.06316 242.744C5.60354 246.025 3.84702 252.908 -5.58576 260.179C-15.1546 267.555 -22.844 267.505 -26.3989 267.132C-28.0109 266.948 -29.6393 267.286 -31.045 268.096C-38.4683 272.409 -47.7418 271.489 -53.4113 265.56L-70.8289 250.398C-78.0158 242.883 -75.0161 232.61 -67.7059 223.63C-67.7059 223.63 -59.7576 213.368 -48.4111 204.622C-37.0645 195.876 -25.1175 190.802 -25.1175 190.802C-14.4461 185.921 -4.35337 185.714 1.20028 194.024C1.45043 194.388 1.65949 194.8 1.84387 195.2L11.3493 216.291C15.6423 223.327 14.1499 232.562 8.03783 238.636Z" fill="#EA4832"/>
<path d="M138.329 78.9356C139.47 76.5383 141.033 72.4378 140.901 68.0481C140.847 66.3707 139.241 65.1309 137.629 65.4907L136.44 65.7567C135.207 66.0256 134.351 67.1655 134.447 68.4547C134.697 71.5916 134.018 74.8096 133.434 76.8854C133.064 78.193 133.73 79.5998 134.979 80.155C136.262 80.7146 137.739 80.1799 138.329 78.9356Z" fill="#D86030"/>
<path d="M75.8134 134.914L68.1894 134.426C67.8135 134.584 67.4746 134.818 67.1944 135.114C66.9141 135.41 66.6987 135.761 66.5618 136.145C66.4249 136.529 66.3695 136.937 66.3992 137.343C66.429 137.75 66.5431 138.146 66.7344 138.506L68.1258 141.134C68.9208 142.628 70.7947 143.15 72.2379 142.27L78.4781 140.139C79.7314 139.374 80.2406 137.805 79.6462 136.451C78.9986 134.968 77.2943 134.284 75.8134 134.914Z" fill="#D86030"/>
<path d="M64.1501 136.921L58.8147 139.562C57.2769 140.902 57.2075 143.263 58.6612 144.667L61.1712 147.1C62.5928 148.482 64.8998 148.36 66.1973 146.849L69.7906 143.073C70.3389 142.438 70.6381 141.626 70.6324 140.787C70.6268 139.948 70.3167 139.14 69.7599 138.512C68.517 137.101 65.5885 135.672 64.1501 136.921Z" fill="#D86030"/>
<path d="M60.2686 160.696L61.779 158.215C62.7076 156.446 63.2182 154.798 63.2123 154.168L64.6719 147.281C64.6523 146.352 63.6058 145.316 62.7379 144.993L59.7327 143.887C59.3837 143.759 59.0084 143.72 58.6403 143.772C58.2722 143.824 57.9228 143.967 57.6233 144.187C57.3237 144.407 57.0833 144.698 56.9236 145.034C56.7638 145.37 56.6896 145.74 56.7077 146.111L56.8042 160.3C56.9056 162.219 58.8879 162.039 60.2686 160.696Z" fill="#D86030"/>
<path d="M85.9428 141.385L77.5039 144.22C77.128 144.377 76.7891 144.611 76.5089 144.907C76.2287 145.203 76.0132 145.554 75.8763 145.938C75.7394 146.322 75.684 146.73 75.7137 147.137C75.7435 147.543 75.8576 147.939 76.0489 148.299L77.4426 150.911C78.2375 152.404 80.1114 152.926 81.5546 152.046L88.6021 146.583C89.8555 145.818 90.3647 144.249 89.7703 142.895C89.1354 141.448 87.4311 140.764 85.9428 141.385Z" fill="#D86030"/>
<path d="M74.2587 148.006L66.0842 151.907C64.5465 153.247 64.477 155.608 65.9308 157.012L68.4407 159.444C69.8623 160.827 72.1693 160.705 73.4668 159.194L79.1314 152.861C79.6797 152.226 79.9788 151.414 79.9732 150.575C79.9675 149.736 79.6574 148.928 79.1006 148.3C78.4938 147.626 77.6459 147.216 76.74 147.161C75.834 147.106 74.9428 147.41 74.2587 148.006Z" fill="#D86030"/>
<path d="M68.4151 177.151L69.9255 174.67C70.8541 172.901 71.3647 171.253 71.3588 170.623L71.9401 159.644C71.9204 158.714 70.8739 157.678 70.0061 157.356L67.0009 156.25C66.6518 156.122 66.2765 156.082 65.9085 156.134C65.5404 156.186 65.191 156.329 64.8914 156.549C64.5919 156.769 64.3515 157.06 64.1917 157.396C64.0319 157.732 63.9578 158.102 63.9758 158.473L64.9679 176.757C65.0521 178.674 67.0269 178.484 68.4151 177.151Z" fill="#D86030"/>
<path d="M97.5824 147.745L86.7823 154.026C85.2747 154.863 84.8047 156.805 85.7657 158.232L87.4224 160.703C88.3608 162.101 90.2861 162.429 91.6342 161.405L100.778 152.654C101.951 151.765 102.283 150.146 101.547 148.87C100.758 147.465 98.9853 146.973 97.5824 147.745Z" fill="#D86030"/>
<path d="M83.9393 158.153L77.9325 162.536C76.5415 164.026 76.7174 166.384 78.3138 167.631L81.0606 169.788C82.6248 171.014 84.9016 170.652 86.033 169.006L89.293 162.466C89.7702 161.777 89.9818 160.938 89.8887 160.104C89.7956 159.271 89.4042 158.499 88.7867 157.932C87.3959 156.65 85.2309 156.755 83.9393 158.153Z" fill="#D86030"/>
<path d="M81.5156 184.041L82.7566 181.412C83.4877 179.547 83.6708 177.997 83.5939 177.375L84.5658 169.594C84.4579 168.671 83.3001 167.752 82.3942 167.521L79.2951 166.735C77.7369 166.341 76.2799 167.665 76.5193 169.262L78.0216 184.008C78.3264 185.911 80.2667 185.515 81.5156 184.041Z" fill="#D86030"/>
<path d="M108.447 151.713L96.5899 161.968C94.8871 163.435 95.4979 166.217 97.6553 166.846L102.123 168.141C103.278 168.474 104.514 168.048 105.217 167.072L113.303 155.884C113.543 155.552 113.708 155.172 113.788 154.77C113.867 154.368 113.859 153.953 113.763 153.555C113.668 153.156 113.488 152.783 113.235 152.461C112.982 152.138 112.662 151.874 112.298 151.687L111.601 151.326C111.097 151.069 110.527 150.969 109.965 151.038C109.403 151.107 108.874 151.342 108.447 151.713Z" fill="#D86030"/>
<path d="M97.5968 165.063L94.8782 167.824C94.0332 168.677 93.864 169.985 94.4275 171.037L98.3131 177.504C99.1904 179.104 101.674 180.257 103.541 178.802L105.008 178.012C105.763 177.244 105.996 176.12 105.61 175.116L102.077 165.992C101.363 164.142 98.9767 163.659 97.5968 165.063Z" fill="#D86030"/>
<path d="M105 180.774C105 180.774 109.57 182.223 113.264 181.59C117.154 180.931 118.573 179.697 118.327 178.957C117.929 177.778 113.233 178.114 109.904 177.211C106.583 176.318 104.197 175.292 104.197 175.292C103.572 175.185 102.946 175.497 102.637 176.061C101.613 178.027 102.815 180.43 105 180.774Z" fill="#D86030"/>
<path d="M142.572 83.4551L144.041 75.9579C144.289 75.6345 144.602 75.3665 144.959 75.1708C145.317 74.9751 145.711 74.8561 146.117 74.8214C146.523 74.7868 146.932 74.8371 147.318 74.9694C147.703 75.1016 148.057 75.3127 148.356 75.5894L150.544 77.6041C151.786 78.7531 151.814 80.6982 150.596 81.8698L146.946 87.3619C145.888 88.3793 144.24 88.4722 143.082 87.5528C141.813 86.5489 141.585 84.7267 142.572 83.4551Z" fill="#D86030"/>
<path d="M147.471 72.6938L151.384 68.2066C153.071 67.0607 155.372 67.5945 156.36 69.3577L158.073 72.4042C159.048 74.1308 158.343 76.3309 156.551 77.201L151.985 79.7146C151.231 80.0833 150.369 80.1658 149.56 79.9468C148.75 79.7278 148.047 79.2222 147.582 78.524C146.534 76.9628 145.908 73.7596 147.471 72.6938Z" fill="#D86030"/>
<path d="M171.461 74.9851L168.678 75.8142C166.731 76.2619 165.007 76.3362 164.399 76.17L157.368 75.8286C156.474 75.573 155.738 74.2971 155.648 73.3759L155.343 70.1881C155.192 68.5856 156.726 67.3412 158.263 67.8287L171.95 71.5415C173.791 72.1207 173.111 73.9918 171.461 74.9851Z" fill="#D86030"/>
<path d="M146.241 94.9054L151.13 87.4661C151.378 87.1428 151.691 86.8747 152.049 86.679C152.406 86.4833 152.801 86.3643 153.207 86.3297C153.613 86.295 154.022 86.3454 154.407 86.4776C154.793 86.6098 155.146 86.821 155.446 87.0976L157.634 89.1123C158.876 90.2613 158.904 92.2064 157.685 93.378L150.608 98.8026C149.549 99.8199 147.902 99.9128 146.744 98.9934C145.499 98.0015 145.271 96.1792 146.241 94.9054Z" fill="#D86030"/>
<path d="M155.628 85.2846L161.481 78.3724C163.168 77.2265 165.469 77.7604 166.457 79.5235L168.17 82.57C169.145 84.2966 168.44 86.4967 166.648 87.3668L159.082 91.2325C158.328 91.6012 157.467 91.6837 156.657 91.4647C155.847 91.2457 155.145 90.7401 154.68 90.0419C153.631 88.4807 154.054 86.3579 155.628 85.2846Z" fill="#D86030"/>
<path d="M185.29 87.0593L182.507 87.8885C180.56 88.3362 178.836 88.4105 178.228 88.2443L167.463 86.0116C166.569 85.756 165.833 84.4801 165.742 83.5589L165.438 80.3711C165.287 78.7686 166.821 77.5241 168.358 78.0117L185.787 83.6255C187.63 84.1875 186.943 86.0488 185.29 87.0593Z" fill="#D86030"/>
<path d="M149.439 107.773L158.262 98.9272C159.455 97.6823 161.452 97.7222 162.588 99.0148L164.556 101.246C165.669 102.509 165.496 104.455 164.163 105.498L153.372 112.112C152.214 113.021 150.564 112.929 149.518 111.893C148.36 110.773 148.326 108.94 149.439 107.773Z" fill="#D86030"/>
<path d="M162.967 97.2361L168.734 92.5428C170.529 91.577 172.765 92.3473 173.564 94.2086L174.951 97.414C175.738 99.2387 174.809 101.349 172.929 102.024L165.775 103.511C164.987 103.797 164.122 103.788 163.339 103.486C162.557 103.184 161.91 102.609 161.519 101.867C161.098 101.061 161.014 100.121 161.285 99.2525C161.557 98.3843 162.161 97.6591 162.967 97.2361Z" fill="#D86030"/>
<path d="M188.628 101.475L185.77 102.006C183.78 102.238 182.234 102.021 181.652 101.788L173.881 100.748C173.016 100.408 172.421 99.0543 172.428 98.1195L172.457 94.9224C172.473 93.3153 174.125 92.2435 175.608 92.8814L189.476 98.0957C191.248 98.8672 190.371 100.643 188.628 101.475Z" fill="#D86030"/>
<path d="M150.5 119.297L163.435 110.441C165.288 109.168 167.822 110.467 167.881 112.713L167.996 117.363C168.025 118.565 167.298 119.651 166.175 120.083L153.297 125.055C152.915 125.202 152.505 125.265 152.096 125.24C151.687 125.214 151.289 125.101 150.927 124.907C150.566 124.713 150.251 124.444 150.004 124.117C149.757 123.791 149.583 123.415 149.494 123.014L149.322 122.249C149.084 121.116 149.55 119.952 150.5 119.297Z" fill="#D86030"/>
<path d="M166.181 112.196L169.544 110.27C170.584 109.67 171.891 109.839 172.765 110.652L178.03 116.056C179.354 117.311 179.837 120.006 177.954 121.442L176.817 122.659C175.882 123.194 174.736 123.133 173.864 122.504L165.932 116.755C164.332 115.603 164.462 113.18 166.181 112.196Z" fill="#D86030"/>
<path d="M179.482 123.362C179.482 123.362 179.719 128.15 178.167 131.561C176.539 135.155 174.985 136.213 174.332 135.787C173.292 135.102 174.814 130.646 174.788 127.197C174.769 123.758 174.384 121.189 174.384 121.189C174.44 120.558 174.902 120.032 175.525 119.877C177.697 119.379 179.715 121.153 179.482 123.362Z" fill="#D86030"/>
<path d="M81.5535 101.576C84.5204 99.2892 84.7028 94.5516 81.9609 90.9945C79.219 87.4374 74.591 86.4077 71.6241 88.6948C68.6571 90.9818 68.4747 95.7194 71.2167 99.2765C73.9586 102.834 78.5866 103.863 81.5535 101.576Z" fill="#2F2F2F"/>
<path d="M107.585 81.2011C110.552 78.9141 110.734 74.1765 107.992 70.6193C105.25 67.0622 100.622 66.0326 97.6553 68.3196C94.6884 70.6066 94.506 75.3442 97.2479 78.9013C99.9898 82.4585 104.618 83.4881 107.585 81.2011Z" fill="#2F2F2F"/>
<path d="M128.08 54.6086L125.355 58.4276C124.221 60.0299 124.589 62.2551 126.191 63.3895L133.183 68.3609C133.836 68.8248 134.627 69.0549 135.427 69.0141C136.227 68.9733 136.99 68.6639 137.593 68.1359L139.271 66.6564C140.712 65.3911 140.897 63.2199 139.69 61.7344L133.737 54.4137C132.266 52.6054 129.448 52.6868 128.08 54.6086Z" fill="#D86030"/>
<path d="M71.9696 130.088C69.3608 130.581 64.9976 131.048 60.7859 129.804C59.1776 129.324 58.3875 127.456 59.1458 125.988L59.7056 124.906C60.2796 123.782 61.5997 123.245 62.8221 123.665C65.7921 124.706 69.0769 124.868 71.2329 124.833C72.5917 124.807 73.7825 125.81 74.0015 127.159C74.216 128.542 73.3326 129.827 71.9696 130.088Z" fill="#D86030"/>
<path d="M51.053 113.983L55.4397 112.321C57.278 111.631 59.3362 112.554 60.0253 114.392L63.0532 122.419C63.3355 123.169 63.3568 123.992 63.1136 124.755C62.8703 125.519 62.3769 126.178 61.7128 126.627L59.8549 127.873C59.0916 128.389 58.1581 128.588 57.2506 128.43C56.3431 128.272 55.5323 127.768 54.9886 127.024L49.4244 119.404C48.0599 117.514 48.8559 114.809 51.053 113.983Z" fill="#D86030"/>
<path d="M74.1976 95.2284C74.8843 94.699 75.0119 93.7132 74.4825 93.0264C73.9532 92.3397 72.9673 92.2121 72.2806 92.7415C71.5938 93.2708 71.4662 94.2567 71.9956 94.9434C72.525 95.6302 73.5108 95.7577 74.1976 95.2284Z" fill="#939090"/>
<path d="M100.543 74.9202C101.23 74.3908 101.358 73.405 100.828 72.7182C100.299 72.0315 99.313 71.9039 98.6263 72.4333C97.9395 72.9627 97.8119 73.9485 98.3413 74.6352C98.8707 75.322 99.8565 75.4496 100.543 74.9202Z" fill="#939090"/>
<path d="M134.424 48.2934C131.948 44.1775 128.18 37.4806 119.157 35.2985C103.962 31.6179 94.4404 37.9505 91.504 40.5702C88.5601 43.1801 90.6902 43.4121 93.6857 43.7822C95.0642 43.9431 99.0384 44.1164 102.533 45.1546C106.112 46.2212 109.19 48.1849 108.798 49.3236C108.146 51.2507 102.772 51.4909 100.631 51.0039C98.303 50.4753 97.7664 50.161 94.8964 48.8888C92.093 47.6427 90.9839 46.887 90.9766 47.8218C90.9596 48.7641 91.741 50.903 93.7375 52.9104C95.386 54.5667 97.8581 55.8049 100.211 57.6924C104.251 60.9437 102.75 60.6446 107.903 64.6172C110.942 66.9519 113.39 67.8372 118.773 67.9305C124.663 68.0367 128.305 64.765 129.986 63.732C132.607 62.1297 134.23 58.7104 135.784 55.2209C136.138 54.3747 135.483 50.0483 134.424 48.2934Z" fill="#ED6C30"/>
<path d="M41.9996 119.537C38.6495 116.095 33.1325 110.746 33.3191 101.465C33.6279 85.8328 42.1757 78.2373 45.4566 76.0645C48.73 73.8819 48.412 76.0009 48.0074 78.992C47.8121 80.366 46.968 84.2534 47.0823 87.8975C47.2027 91.6299 48.3183 95.1063 49.5192 95.0168C51.5488 94.8772 53.1492 89.7409 53.2233 87.5466C53.3047 85.1609 53.1373 84.562 52.6376 81.4627C52.1462 78.4344 51.6977 77.1695 52.6036 77.4004C53.5192 77.6238 55.3886 78.924 56.8217 81.3657C58.0039 83.3815 58.5719 86.0874 59.7982 88.8435C61.9141 93.5775 62.0068 92.0503 64.5368 98.0447C66.0211 101.578 66.2541 104.17 64.9738 109.4C63.5773 115.123 59.4863 117.812 58.0593 119.175C55.8425 121.302 52.1227 122.001 48.3527 122.615C47.4344 122.75 43.4272 121.007 41.9996 119.537Z" fill="#ED6C30"/>
<path d="M152.132 126.758C151.037 127.849 150.377 129.303 150.159 130.849C149.702 134.113 147.948 140.979 138.563 148.212C129.034 155.558 121.371 155.502 117.833 155.132C116.219 154.967 114.604 155.283 113.214 156.091C105.827 160.391 96.5883 159.475 90.9511 153.568L73.603 138.476C66.4558 130.992 69.4414 120.762 76.7105 111.829C76.7105 111.829 84.6274 101.607 95.9254 92.8979C107.223 84.189 119.114 79.1426 119.114 79.1426C129.739 74.2821 139.788 74.0783 145.319 82.3589C145.569 82.7236 145.771 83.1257 145.955 83.5257L155.41 104.531C159.703 111.506 158.215 120.706 152.132 126.758Z" fill="#ED6C30"/>
<path d="M86.4998 134.714C84.8678 135.972 82.4835 135.812 81.0087 134.301C78.7509 132.015 75.9975 126.193 80.0278 118.905C81.1251 116.913 83.6327 116.188 85.6148 117.293C87.6067 118.39 88.3316 120.898 87.2268 122.88C85.2957 126.382 86.6452 128.253 86.9417 128.597C88.5429 130.212 88.4834 132.767 86.8682 134.368C86.7546 134.502 86.6261 134.617 86.4998 134.714Z" fill="white"/>
</g>
<defs>
<clipPath id="clip0_204_4">
<rect width="157" height="157" fill="white" transform="translate(0 95.8496) rotate(-37.6262)"/>
</clipPath>
</defs>
</svg>
