<svg width="286" height="215" viewBox="0 0 286 215" fill="none" xmlns="http://www.w3.org/2000/svg">
<path d="M108.567 209.572C104.538 211.156 100.085 210.774 95.2072 208.425C90.3291 206.076 85.7239 202.771 81.3916 198.511C77.0593 194.251 73.9191 190.165 71.9711 186.252L65.3581 172.548C64.4922 170.629 64.405 168.68 65.0964 166.698C65.7879 164.717 67.057 163.281 68.9036 162.39L75.9013 159.013L48.7136 102.486L36.7591 108.254C34.9125 109.146 33.0346 109.258 31.1254 108.592C29.2162 107.925 27.816 106.669 26.9249 104.822C26.0338 102.975 25.9215 101.098 26.5878 99.1884C27.2542 97.2792 28.5106 95.879 30.3573 94.9879L67.5327 77.0486C69.3793 76.1575 71.2572 76.0452 73.1664 76.7115C75.0756 77.3779 76.4758 78.6343 77.3669 80.481C78.258 82.3276 78.3703 84.2055 77.704 86.1147C77.0376 88.0239 75.7811 89.4241 73.9345 90.3152L61.9801 96.0839L89.3136 152.541L96.3114 149.164C98.158 148.273 100.072 148.173 102.053 148.865C104.034 149.556 105.507 150.838 106.47 152.709L113.083 166.413C114.934 170.373 116.179 175.374 116.818 181.416C117.457 187.458 117.178 193.12 115.982 198.4C114.785 203.68 112.314 207.404 108.567 209.572Z" fill="#00C21F"/>
<g clip-path="url(#clip0_204_77)">
<path d="M237.557 39.6409H237.551H202.319C199.886 39.6409 197.912 37.6668 197.912 35.2347V17.6153C197.912 15.1828 199.886 13.2153 202.319 13.2153H237.551C239.08 13.2153 240.499 14.0023 241.299 15.2993C242.099 16.6024 242.176 18.2219 241.493 19.5832L238.073 26.4281L241.389 33.0669C241.757 33.7057 241.964 34.4477 241.964 35.2347C241.964 37.6668 239.989 39.6409 237.557 39.6409Z" fill="#DA4453"/>
<path d="M211.126 4.40288H180.291C177.865 4.40288 175.891 6.3766 175.891 8.80907V26.4281C175.891 28.8606 177.865 30.8281 180.291 30.8281H211.126C213.559 30.8281 215.532 28.8601 215.532 26.4281V8.80907C215.532 6.3766 213.559 4.40288 211.126 4.40288Z" fill="#ED5564"/>
<path d="M180.291 70.4665C177.865 70.4665 175.891 68.4986 175.891 66.0665V4.4029C175.891 1.97043 177.865 0.00289917 180.291 0.00289917C182.729 0.00289917 184.697 1.97084 184.697 4.4029V66.0665C184.697 68.499 182.73 70.4665 180.291 70.4665Z" fill="#434A54"/>
<path d="M206.719 52.8537H193.507C191.081 52.8537 189.107 54.8217 189.107 57.2537V61.6599H171.484V57.2537C171.484 54.8213 169.516 52.8537 167.078 52.8537H153.865C151.439 52.8537 149.465 54.8217 149.465 57.2537V114.511C149.465 116.943 151.439 118.917 153.865 118.917H206.719C209.158 118.917 211.126 116.943 211.126 114.511V57.2537C211.126 54.8217 209.158 52.8537 206.719 52.8537Z" fill="#F6BB42"/>
<path opacity="0.2" d="M206.719 52.8537H193.507C191.081 52.8537 189.107 54.8217 189.107 57.2537V61.6599H171.484V57.2537C171.484 54.8213 169.516 52.8537 167.078 52.8537H153.865C151.439 52.8537 149.465 54.8217 149.465 57.2537V66.0665C149.465 63.6279 151.439 61.6599 153.865 61.6599H167.078C169.516 61.6599 171.484 63.6279 171.484 66.0665V70.4665H189.106V66.0665C189.106 63.6279 191.08 61.6599 193.506 61.6599H206.719C209.158 61.6599 211.126 63.6279 211.126 66.0665V57.2537C211.126 54.8217 209.158 52.8537 206.719 52.8537Z" fill="white"/>
<path d="M237.551 79.2794H219.932C217.506 79.2794 215.532 81.2473 215.532 83.6794V96.8918H197.913V83.6794C197.913 81.2469 195.945 79.2794 193.506 79.2794H167.077C164.652 79.2794 162.677 81.2473 162.677 83.6794V96.8918H145.058V83.6794C145.058 82.5116 144.594 81.3889 143.768 80.5631C142.942 79.7373 141.826 79.2794 140.652 79.2794H123.039C120.607 79.2794 118.633 81.2473 118.633 83.6794V189.381C118.633 191.814 120.607 193.788 123.039 193.788H237.551C239.983 193.788 241.958 191.814 241.958 189.381V83.6794C241.958 81.2473 239.983 79.2794 237.551 79.2794Z" fill="#FFCE54"/>
<g opacity="0.2">
<path opacity="0.2" d="M167.077 88.0856H193.506C195.944 88.0856 197.912 90.0535 197.912 92.4918V83.6794C197.912 81.2469 195.944 79.2794 193.506 79.2794H167.077C164.651 79.2794 162.677 81.2473 162.677 83.6794V92.4918C162.677 90.0535 164.651 88.0856 167.077 88.0856Z" fill="white"/>
<path opacity="0.2" d="M215.534 96.8934H197.914V105.707H215.534V96.8934Z" fill="white"/>
<path opacity="0.2" d="M162.677 96.8934H145.058V105.707H162.677V96.8934Z" fill="white"/>
<path opacity="0.2" d="M123.039 88.0856H140.652C141.826 88.0856 142.942 88.5501 143.768 89.3759C144.594 90.2017 145.058 91.3178 145.058 92.4851V83.6794C145.058 82.5116 144.594 81.3889 143.768 80.5631C142.942 79.7373 141.826 79.2794 140.652 79.2794H123.039C120.607 79.2794 118.633 81.2473 118.633 83.6794V92.4918C118.633 90.0535 120.607 88.0856 123.039 88.0856Z" fill="white"/>
<path opacity="0.2" d="M237.55 79.2794H219.931C217.505 79.2794 215.531 81.2473 215.531 83.6794V92.4918C215.531 90.0535 217.505 88.0856 219.931 88.0856H237.55C239.983 88.0856 241.957 90.0535 241.957 92.4918V83.6794C241.957 81.2473 239.983 79.2794 237.55 79.2794Z" fill="white"/>
</g>
<path d="M180.291 123.317C170.561 123.317 162.678 131.208 162.678 140.937V179.201H197.913V140.937C197.913 131.208 190.029 123.317 180.291 123.317Z" fill="#434A54"/>
<path d="M285.415 204.807C285.131 204.317 278.402 192.807 261.951 181.362C252.395 174.717 241.48 169.427 229.506 165.64C214.635 160.937 198.074 158.556 180.291 158.556C162.51 158.556 145.956 160.937 131.084 165.64C119.11 169.427 108.194 174.717 98.6398 181.362C82.1881 192.807 75.4593 204.317 75.1756 204.807C74.3948 206.168 74.3948 207.846 75.1822 209.207C75.9696 210.568 77.4276 211.407 78.9951 211.407H281.596C283.17 211.407 284.622 210.568 285.409 209.207C286.196 207.846 286.196 206.168 285.415 204.807Z" fill="#FFCE54"/>
<path opacity="0.2" d="M76.9627 210.904C79.9369 206.755 86.7496 198.445 98.6398 190.168C108.195 183.523 119.111 178.233 131.084 174.446C145.956 169.742 162.51 167.362 180.291 167.362C198.074 167.362 214.636 169.742 229.506 174.446C241.48 178.233 252.396 183.523 261.951 190.168C273.841 198.445 280.654 206.755 283.621 210.904C284.357 210.523 284.983 209.942 285.408 209.207C286.195 207.846 286.195 206.168 285.415 204.807C285.131 204.317 278.402 192.807 261.951 181.362C252.396 174.717 241.48 169.427 229.506 165.64C214.635 160.937 198.074 158.556 180.291 158.556C162.51 158.556 145.956 160.937 131.084 165.64C119.11 169.427 108.194 174.717 98.6398 181.362C82.1881 192.807 75.4593 204.317 75.1756 204.807C74.3948 206.168 74.3948 207.846 75.1822 209.207C75.6079 209.942 76.2335 210.523 76.9627 210.904Z" fill="white"/>
<path d="M126.155 190.671C127.871 192.394 127.871 195.181 126.155 196.904C124.432 198.62 121.645 198.62 119.923 196.904C118.2 195.181 118.2 192.394 119.923 190.671C121.645 188.956 124.432 188.956 126.155 190.671Z" fill="#F6BB42"/>
<path d="M143.768 173.052C145.491 174.775 145.491 177.562 143.768 179.285C142.052 181.001 139.258 181.001 137.542 179.285C135.819 177.562 135.819 174.775 137.542 173.052C139.258 171.336 142.052 171.336 143.768 173.052Z" fill="#F6BB42"/>
<path d="M161.387 190.671C163.103 192.394 163.103 195.181 161.387 196.904C159.665 198.62 156.878 198.62 155.155 196.904C153.439 195.181 153.439 192.394 155.155 190.671C156.878 188.956 159.665 188.956 161.387 190.671Z" fill="#F6BB42"/>
<path d="M179.006 173.052C180.723 174.775 180.723 177.562 179.006 179.285C177.284 181.001 174.497 181.001 172.774 179.285C171.058 177.562 171.058 174.775 172.774 173.052C174.497 171.336 177.284 171.336 179.006 173.052Z" fill="#F6BB42"/>
<path d="M196.621 190.671C198.344 192.394 198.344 195.181 196.621 196.904C194.905 198.62 192.112 198.62 190.396 196.904C188.673 195.181 188.673 192.394 190.396 190.671C192.112 188.956 194.905 188.956 196.621 190.671Z" fill="#F6BB42"/>
<path d="M214.241 173.052C215.957 174.775 215.957 177.562 214.241 179.285C212.519 181.001 209.731 181.001 208.009 179.285C206.293 177.562 206.293 174.775 208.009 173.052C209.731 171.336 212.519 171.336 214.241 173.052Z" fill="#F6BB42"/>
<path d="M231.854 190.671C233.577 192.394 233.577 195.181 231.854 196.904C230.138 198.62 227.351 198.62 225.628 196.904C223.905 195.181 223.905 192.394 225.628 190.671C227.351 188.956 230.138 188.956 231.854 190.671Z" fill="#F6BB42"/>
</g>
<defs>
<clipPath id="clip0_204_77">
<rect width="211.41" height="211.41" fill="white" transform="translate(74.5908)"/>
</clipPath>
</defs>
</svg>
