<svg xmlns="http://www.w3.org/2000/svg" xmlns:xlink="http://www.w3.org/1999/xlink" version="1.1" width="1884" height="1325" viewBox="0 0 1884 1325" xml:space="preserve">
<desc>Created with Fabric.js 3.5.0</desc>
<defs>
</defs>
<rect x="0" y="0" width="100%" height="100%" fill="rgba(255,255,255,0)"/>
<g transform="matrix(1 0 0 1 1395.318 299.0714)" id="735098">
<path style="stroke: none; stroke-width: 1; stroke-dasharray: none; stroke-linecap: butt; stroke-dashoffset: 0; stroke-linejoin: miter; stroke-miterlimit: 4; is-custom-font: none; font-file-url: none; fill: rgb(248,224,196); fill-rule: nonzero; opacity: 1;" vector-effect="non-scaling-stroke" transform=" translate(-488.7006, -292.9762)" d="M 943.496 464.883 C 951.558 458.896 964.277 459.715 971.838 466.676 C 979.398 473.636 978.957 484.175 970.895 490.162 C 852.458 577.834 789.23 543.673 724.723 508.85 C 505.669 390.571 501.877 684.44 249.529 548.188 C 198.147 520.436 147.725 493.212 51.5768 564.406 C 43.5144 570.392 30.7952 569.573 23.2348 562.613 C 15.6744 555.653 16.1157 545.113 24.1781 539.127 C 142.615 451.454 205.843 485.616 270.35 520.439 C 489.404 638.717 493.196 344.849 745.465 481.1 C 796.926 508.853 847.348 536.077 943.496 464.883 Z M 33.9053 121.07 C 25.8429 127.057 13.1237 126.237 5.56328 119.277 C -1.99714 112.317 -1.55581 101.778 6.5066 95.7909 C 124.943 8.11831 188.171 42.28 252.679 77.1029 C 471.732 195.381 475.524 -98.487 727.794 37.764 C 779.176 65.5163 829.598 92.7402 925.746 21.5462 C 933.808 15.5595 946.528 16.3791 954.088 23.3392 C 961.648 30.2993 961.207 40.8386 953.145 46.8252 C 834.708 134.498 771.48 100.336 706.973 65.5133 C 487.997 -52.7645 484.208 241.169 231.857 104.852 C 180.475 77.0999 130.053 49.876 33.9053 121.07 Z M 39.7958 268.849 C 31.7334 274.835 19.0142 274.016 11.4538 267.056 C 3.89336 260.095 4.33469 249.556 12.3971 243.57 C 130.834 155.897 194.062 190.059 258.569 224.881 C 477.623 343.16 481.415 49.2916 733.684 185.543 C 785.067 213.295 835.488 240.519 931.637 169.325 C 939.699 163.338 952.418 164.158 959.978 171.118 C 967.539 178.078 967.098 188.617 959.035 194.604 C 840.599 282.276 777.371 248.115 712.863 213.292 C 493.888 95.0141 490.098 388.947 237.748 252.631 C 186.366 224.878 135.944 197.655 39.7958 268.849 Z M 45.6863 416.627 C 37.6239 422.614 24.9047 421.794 17.3443 414.834 C 9.78386 407.874 10.2252 397.335 18.2876 391.348 C 136.724 303.675 199.952 337.837 264.46 372.66 C 483.513 490.938 487.305 197.07 739.575 333.321 C 790.957 361.073 841.379 388.297 937.527 317.103 C 945.589 311.117 958.309 311.936 965.869 318.896 C 973.429 325.856 972.988 336.396 964.926 342.382 C 846.489 430.055 783.261 395.893 718.754 361.07 C 499.778 242.793 495.989 536.726 243.638 400.409 C 192.256 372.657 141.834 345.433 45.6863 416.627 Z" stroke-linecap="round"/>
</g>
<g transform="matrix(1 0 0 1 491.035 362.1667)" id="36889">
<path style="stroke: none; stroke-width: 1; stroke-dasharray: none; stroke-linecap: butt; stroke-dashoffset: 0; stroke-linejoin: miter; stroke-miterlimit: 4; is-custom-font: none; font-file-url: none; fill: rgb(248,224,196); fill-rule: nonzero; opacity: 1;" vector-effect="non-scaling-stroke" transform=" translate(-488.7006, -292.9762)" d="M 943.496 464.883 C 951.558 458.896 964.277 459.715 971.838 466.676 C 979.398 473.636 978.957 484.175 970.895 490.162 C 852.458 577.834 789.23 543.673 724.723 508.85 C 505.669 390.571 501.877 684.44 249.529 548.188 C 198.147 520.436 147.725 493.212 51.5768 564.406 C 43.5144 570.392 30.7952 569.573 23.2348 562.613 C 15.6744 555.653 16.1157 545.113 24.1781 539.127 C 142.615 451.454 205.843 485.616 270.35 520.439 C 489.404 638.717 493.196 344.849 745.465 481.1 C 796.926 508.853 847.348 536.077 943.496 464.883 Z M 33.9053 121.07 C 25.8429 127.057 13.1237 126.237 5.56328 119.277 C -1.99714 112.317 -1.55581 101.778 6.5066 95.7909 C 124.943 8.11831 188.171 42.28 252.679 77.1029 C 471.732 195.381 475.524 -98.487 727.794 37.764 C 779.176 65.5163 829.598 92.7402 925.746 21.5462 C 933.808 15.5595 946.528 16.3791 954.088 23.3392 C 961.648 30.2993 961.207 40.8386 953.145 46.8252 C 834.708 134.498 771.48 100.336 706.973 65.5133 C 487.997 -52.7645 484.208 241.169 231.857 104.852 C 180.475 77.0999 130.053 49.876 33.9053 121.07 Z M 39.7958 268.849 C 31.7334 274.835 19.0142 274.016 11.4538 267.056 C 3.89336 260.095 4.33469 249.556 12.3971 243.57 C 130.834 155.897 194.062 190.059 258.569 224.881 C 477.623 343.16 481.415 49.2916 733.684 185.543 C 785.067 213.295 835.488 240.519 931.637 169.325 C 939.699 163.338 952.418 164.158 959.978 171.118 C 967.539 178.078 967.098 188.617 959.035 194.604 C 840.599 282.276 777.371 248.115 712.863 213.292 C 493.888 95.0141 490.098 388.947 237.748 252.631 C 186.366 224.878 135.944 197.655 39.7958 268.849 Z M 45.6863 416.627 C 37.6239 422.614 24.9047 421.794 17.3443 414.834 C 9.78386 407.874 10.2252 397.335 18.2876 391.348 C 136.724 303.675 199.952 337.837 264.46 372.66 C 483.513 490.938 487.305 197.07 739.575 333.321 C 790.957 361.073 841.379 388.297 937.527 317.103 C 945.589 311.117 958.309 311.936 965.869 318.896 C 973.429 325.856 972.988 336.396 964.926 342.382 C 846.489 430.055 783.261 395.893 718.754 361.07 C 499.778 242.793 495.989 536.726 243.638 400.409 C 192.256 372.657 141.834 345.433 45.6863 416.627 Z" stroke-linecap="round"/>
</g>
<g transform="matrix(1 0 0 1 491.035 962.8333)" id="875922">
<path style="stroke: none; stroke-width: 1; stroke-dasharray: none; stroke-linecap: butt; stroke-dashoffset: 0; stroke-linejoin: miter; stroke-miterlimit: 4; is-custom-font: none; font-file-url: none; fill: rgb(248,224,196); fill-rule: nonzero; opacity: 1;" vector-effect="non-scaling-stroke" transform=" translate(-488.7006, -292.9762)" d="M 943.496 464.883 C 951.558 458.896 964.277 459.715 971.838 466.676 C 979.398 473.636 978.957 484.175 970.895 490.162 C 852.458 577.834 789.23 543.673 724.723 508.85 C 505.669 390.571 501.877 684.44 249.529 548.188 C 198.147 520.436 147.725 493.212 51.5768 564.406 C 43.5144 570.392 30.7952 569.573 23.2348 562.613 C 15.6744 555.653 16.1157 545.113 24.1781 539.127 C 142.615 451.454 205.843 485.616 270.35 520.439 C 489.404 638.717 493.196 344.849 745.465 481.1 C 796.926 508.853 847.348 536.077 943.496 464.883 Z M 33.9053 121.07 C 25.8429 127.057 13.1237 126.237 5.56328 119.277 C -1.99714 112.317 -1.55581 101.778 6.5066 95.7909 C 124.943 8.11831 188.171 42.28 252.679 77.1029 C 471.732 195.381 475.524 -98.487 727.794 37.764 C 779.176 65.5163 829.598 92.7402 925.746 21.5462 C 933.808 15.5595 946.528 16.3791 954.088 23.3392 C 961.648 30.2993 961.207 40.8386 953.145 46.8252 C 834.708 134.498 771.48 100.336 706.973 65.5133 C 487.997 -52.7645 484.208 241.169 231.857 104.852 C 180.475 77.0999 130.053 49.876 33.9053 121.07 Z M 39.7958 268.849 C 31.7334 274.835 19.0142 274.016 11.4538 267.056 C 3.89336 260.095 4.33469 249.556 12.3971 243.57 C 130.834 155.897 194.062 190.059 258.569 224.881 C 477.623 343.16 481.415 49.2916 733.684 185.543 C 785.067 213.295 835.488 240.519 931.637 169.325 C 939.699 163.338 952.418 164.158 959.978 171.118 C 967.539 178.078 967.098 188.617 959.035 194.604 C 840.599 282.276 777.371 248.115 712.863 213.292 C 493.888 95.0141 490.098 388.947 237.748 252.631 C 186.366 224.878 135.944 197.655 39.7958 268.849 Z M 45.6863 416.627 C 37.6239 422.614 24.9047 421.794 17.3443 414.834 C 9.78386 407.874 10.2252 397.335 18.2876 391.348 C 136.724 303.675 199.952 337.837 264.46 372.66 C 483.513 490.938 487.305 197.07 739.575 333.321 C 790.957 361.073 841.379 388.297 937.527 317.103 C 945.589 311.117 958.309 311.936 965.869 318.896 C 973.429 325.856 972.988 336.396 964.926 342.382 C 846.489 430.055 783.261 395.893 718.754 361.07 C 499.778 242.793 495.989 536.726 243.638 400.409 C 192.256 372.657 141.834 345.433 45.6863 416.627 Z" stroke-linecap="round"/>
</g>
<g transform="matrix(1 0 0 1 1395.318 899.7381)" id="562975">
<path style="stroke: none; stroke-width: 1; stroke-dasharray: none; stroke-linecap: butt; stroke-dashoffset: 0; stroke-linejoin: miter; stroke-miterlimit: 4; is-custom-font: none; font-file-url: none; fill: rgb(248,224,196); fill-rule: nonzero; opacity: 1;" vector-effect="non-scaling-stroke" transform=" translate(-488.7006, -292.9762)" d="M 943.496 464.883 C 951.558 458.896 964.277 459.715 971.838 466.676 C 979.398 473.636 978.957 484.175 970.895 490.162 C 852.458 577.834 789.23 543.673 724.723 508.85 C 505.669 390.571 501.877 684.44 249.529 548.188 C 198.147 520.436 147.725 493.212 51.5768 564.406 C 43.5144 570.392 30.7952 569.573 23.2348 562.613 C 15.6744 555.653 16.1157 545.113 24.1781 539.127 C 142.615 451.454 205.843 485.616 270.35 520.439 C 489.404 638.717 493.196 344.849 745.465 481.1 C 796.926 508.853 847.348 536.077 943.496 464.883 Z M 33.9053 121.07 C 25.8429 127.057 13.1237 126.237 5.56328 119.277 C -1.99714 112.317 -1.55581 101.778 6.5066 95.7909 C 124.943 8.11831 188.171 42.28 252.679 77.1029 C 471.732 195.381 475.524 -98.487 727.794 37.764 C 779.176 65.5163 829.598 92.7402 925.746 21.5462 C 933.808 15.5595 946.528 16.3791 954.088 23.3392 C 961.648 30.2993 961.207 40.8386 953.145 46.8252 C 834.708 134.498 771.48 100.336 706.973 65.5133 C 487.997 -52.7645 484.208 241.169 231.857 104.852 C 180.475 77.0999 130.053 49.876 33.9053 121.07 Z M 39.7958 268.849 C 31.7334 274.835 19.0142 274.016 11.4538 267.056 C 3.89336 260.095 4.33469 249.556 12.3971 243.57 C 130.834 155.897 194.062 190.059 258.569 224.881 C 477.623 343.16 481.415 49.2916 733.684 185.543 C 785.067 213.295 835.488 240.519 931.637 169.325 C 939.699 163.338 952.418 164.158 959.978 171.118 C 967.539 178.078 967.098 188.617 959.035 194.604 C 840.599 282.276 777.371 248.115 712.863 213.292 C 493.888 95.0141 490.098 388.947 237.748 252.631 C 186.366 224.878 135.944 197.655 39.7958 268.849 Z M 45.6863 416.627 C 37.6239 422.614 24.9047 421.794 17.3443 414.834 C 9.78386 407.874 10.2252 397.335 18.2876 391.348 C 136.724 303.675 199.952 337.837 264.46 372.66 C 483.513 490.938 487.305 197.07 739.575 333.321 C 790.957 361.073 841.379 388.297 937.527 317.103 C 945.589 311.117 958.309 311.936 965.869 318.896 C 973.429 325.856 972.988 336.396 964.926 342.382 C 846.489 430.055 783.261 395.893 718.754 361.07 C 499.778 242.793 495.989 536.726 243.638 400.409 C 192.256 372.657 141.834 345.433 45.6863 416.627 Z" stroke-linecap="round"/>
</g>
</svg>