<svg width="94" height="71" viewBox="0 0 94 71" fill="none" xmlns="http://www.w3.org/2000/svg">
<path d="M47.0003 70.3333L43.4537 56.3333C58.667 55.3533 72.247 48.8667 76.167 40.3733C76.587 42.6133 77.1937 44.6667 78.127 46.2067C81.207 51.6667 87.4603 51.6667 93.667 51.6667C88.5337 51.6667 86.667 44.34 86.667 35.3333C86.667 26.3267 88.5337 19 93.667 19C87.4603 19 81.207 19 78.127 24.46C77.1937 26 76.587 28.0533 76.167 30.2933C73.1337 23.6667 64.1737 18.3 53.2537 15.8267L61.0003 0.333344C51.667 0.333344 42.3337 0.333344 36.127 3.46001C30.8537 6.07334 27.8203 10.9267 25.1137 16.1067C11.487 19.3733 0.333649 26.7467 0.333649 35.3333C0.333649 44.1067 12.0003 51.6667 26.0003 54.7467C29.8737 59.88 33.6537 64.64 36.8737 67.2067C40.7937 70.3333 43.8737 70.3333 47.0003 70.3333ZM23.667 28.3333C24.9047 28.3333 26.0917 28.825 26.9668 29.7002C27.842 30.5753 28.3337 31.7623 28.3337 33C28.3337 34.2377 27.842 35.4247 26.9668 36.2998C26.0917 37.175 24.9047 37.6667 23.667 37.6667C22.4293 37.6667 21.2423 37.175 20.3671 36.2998C19.492 35.4247 19.0003 34.2377 19.0003 33C19.0003 31.7623 19.492 30.5753 20.3671 29.7002C21.2423 28.825 22.4293 28.3333 23.667 28.3333Z" fill="black" fill-opacity="0.1"/>
</svg>
