<svg width="39" height="22" viewBox="0 0 39 22" fill="none" xmlns="http://www.w3.org/2000/svg">
<path d="M22.1475 0.375C16.0558 0.375 10.7359 4.01207 7.77503 7.12387L1.86206 2.73773C1.04076 2.12813 -0.185436 2.77758 0.0244598 3.71125L1.66165 11L0.0237827 18.2894C-0.186113 19.2231 1.04008 19.8719 1.86139 19.2629L7.77435 14.8768C10.7352 17.9879 16.0558 21.625 22.1475 21.625C31.4547 21.625 39.0001 13.125 39.0001 11C39.0001 8.875 31.4547 0.375 22.1475 0.375ZM28.0672 12.5938C27.1701 12.5938 26.4422 11.8799 26.4422 11C26.4422 10.1195 27.1701 9.40625 28.0672 9.40625C28.965 9.40625 29.6922 10.1195 29.6922 11C29.6922 11.8799 28.9644 12.5938 28.0672 12.5938Z" fill="white"/>
</svg>
