<svg width="125" height="125" viewBox="0 0 125 125" fill="none" xmlns="http://www.w3.org/2000/svg">
<path d="M77.2344 32.8229C73.3906 32.6458 72.2344 32.6146 62.5 32.6146C52.7656 32.6146 51.6146 32.651 47.7708 32.8229C37.8802 33.276 33.276 37.9583 32.8229 47.7708C32.651 51.6146 32.6094 52.7656 32.6094 62.5C32.6094 72.2344 32.651 73.3854 32.8229 77.2344C33.276 87.0208 37.8594 91.7292 47.7708 92.1823C51.6094 92.3542 52.7656 92.3958 62.5 92.3958C72.2396 92.3958 73.3906 92.3594 77.2344 92.1823C87.125 91.7344 91.724 87.0365 92.1823 77.2344C92.3542 73.3906 92.3906 72.2344 92.3906 62.5C92.3906 52.7656 92.3542 51.6146 92.1823 47.7708C91.724 37.9635 87.1146 33.276 77.2344 32.8229ZM62.5 81.224C52.1615 81.224 43.776 72.8438 43.776 62.5C43.776 52.1615 52.1615 43.7813 62.5 43.7813C72.8385 43.7813 81.224 52.1615 81.224 62.5C81.224 72.8385 72.8385 81.224 62.5 81.224ZM81.9635 47.4167C79.5469 47.4167 77.5885 45.4583 77.5885 43.0417C77.5885 40.625 79.5469 38.6667 81.9635 38.6667C84.3802 38.6667 86.3385 40.625 86.3385 43.0417C86.3385 45.4531 84.3802 47.4167 81.9635 47.4167ZM74.651 62.5C74.651 69.2135 69.2083 74.651 62.5 74.651C55.7917 74.651 50.349 69.2135 50.349 62.5C50.349 55.7865 55.7917 50.349 62.5 50.349C69.2083 50.349 74.651 55.7865 74.651 62.5ZM62.5 0C27.9844 0 0 27.9844 0 62.5C0 97.0156 27.9844 125 62.5 125C97.0156 125 125 97.0156 125 62.5C125 27.9844 97.0156 0 62.5 0ZM98.7396 77.5312C98.1406 90.7865 90.7604 98.1302 77.5365 98.7396C73.6458 98.9167 72.401 98.9583 62.5 98.9583C52.599 98.9583 51.3594 98.9167 47.4688 98.7396C34.2188 98.1302 26.8698 90.776 26.2604 77.5312C26.0833 73.6458 26.0417 72.401 26.0417 62.5C26.0417 52.599 26.0833 51.3594 26.2604 47.4688C26.8698 34.2188 34.224 26.8698 47.4688 26.2656C51.3594 26.0833 52.599 26.0417 62.5 26.0417C72.401 26.0417 73.6458 26.0833 77.5365 26.2656C90.7917 26.875 98.1458 34.2448 98.7396 47.4688C98.9167 51.3594 98.9583 52.599 98.9583 62.5C98.9583 72.401 98.9167 73.6458 98.7396 77.5312Z" fill="black"/>
</svg>
