<svg width="77" height="80" viewBox="0 0 77 80" fill="none" xmlns="http://www.w3.org/2000/svg">
<path d="M62.1325 15.6289C61.9828 15.4733 61.831 15.3489 61.6812 15.2111C59.3712 12.7956 56.3404 11.7356 53.1086 12.16L44.9551 13.2333C44.1381 6.56 40.1426 3.35333 35.6488 3.94222L26.5799 5.13333C25.827 1.70444 23.5513 0.0755549 21.0188 0.41111L10.765 1.75555C7.93523 2.12889 5.93109 5.41778 6.28828 9.10444L7.58445 22.4533C7.90956 25.7889 10.6324 28.2111 12.7242 28.4378L13.8236 39.7556C14.3754 45.4289 19.1901 49.4556 22.6294 49.4889L23.6946 60.4355C24.0453 64.04 25.6795 67.1622 27.7948 69.4644C28.2868 70.2178 28.8022 70.9222 29.3712 71.5133C38.8315 81.3422 55.4293 82.7667 64.8917 72.9356C74.3456 63.1089 71.5928 25.4578 62.1325 15.6289Z" fill="#CCD6DD"/>
<path d="M65.4693 31.9911C67.1826 37.26 68.7739 57.7022 62.1925 66.5311C55.6069 75.3578 44.9894 63.4444 50.8307 52.7422C56.6699 42.0444 63.7411 26.6689 65.4693 31.9911Z" fill="#66757F"/>
<path d="M44.9555 13.2311C44.9748 13.3911 45.0154 13.5267 45.0325 13.6889C45.7127 20.6978 28.593 48.7978 23.2073 49.5089C23.0255 49.5333 22.8202 49.4911 22.6277 49.4911L23.4854 58.3156C31.3864 54.0133 50.0332 23.4044 51.477 12.3756L44.9555 13.2311ZM26.5825 5.13111C26.6723 5.53555 26.7514 5.95111 26.7964 6.40666C27.2177 10.7222 16.6751 28.0178 13.3641 28.4578C13.1631 28.4844 12.9449 28.46 12.7246 28.4378L13.4796 36.22C19.4257 31.5622 30.7897 12.9111 32.9307 4.29778L26.5825 5.13111Z" fill="#99AAB5"/>
</svg>
