<svg width="112" height="126" viewBox="0 0 112 126" fill="none" xmlns="http://www.w3.org/2000/svg">
<path d="M22.4437 8.46563C3.34682 -4.72499 -0.59068 13.7813 8.66244 27.5625C17.7187 23.0344 20.0812 13.3875 22.4437 8.46563Z" fill="#FFECD6"/>
<path d="M22.2473 43.9031C28.3504 35.8313 34.4535 25.5938 37.8004 14.9625C34.0598 10.8281 28.5473 8.46563 24.6098 9.64688C23.2317 15.1594 19.6879 19.0969 16.1442 23.2313C13.9785 25.7906 12.2067 28.5469 9.84415 30.9094C6.3004 37.8 8.85978 49.8094 12.9942 53.3531C16.341 50.5969 19.491 47.6438 22.2473 43.9031Z" fill="#FFECD6"/>
<path d="M75.9937 107.1C83.0812 107.1 121.275 112.022 121.275 96.075C121.275 59.2594 116.55 28.35 70.875 28.35C65.5594 42.525 62.4094 41.3438 67.725 28.35C64.7719 18.5063 50.5969 11.4188 39.375 15.75C36.4219 25.7906 31.1062 36.225 25.3969 43.7063C21.8531 48.4313 18.1125 52.7625 13.7812 56.7C13.7812 88.5938 48.6281 107.1 75.9937 107.1Z" fill="#FFECD6"/>
<path d="M25.5938 9.44999C25.5938 9.44999 23.4281 9.64687 21.6562 8.07187C16.5375 20.475 7.875 26.5781 7.875 26.5781C10.0406 29.7281 9.05625 33.075 9.05625 33.075C11.8125 30.1219 21.2625 22.2469 25.5938 9.44999Z" fill="#DDB199"/>
<path d="M48.628 58.8656C45.0843 62.8031 115.172 122.456 115.172 116.55C115.172 109.856 114.187 109.659 113.991 106.116C113.794 102.572 119.109 88.7906 113.203 80.5219C110.644 76.9781 100.8 63.5906 98.4374 59.85C96.0749 56.1094 78.1593 50.4 74.0249 50.0063C69.8905 49.2188 52.1718 54.9281 48.628 58.8656Z" fill="#29251C"/>
<path d="M115.763 95.8781C113.794 94.3031 98.2409 94.1063 90.3659 90.3656C79.144 84.8531 69.694 81.1125 66.7409 72.8438C63.9847 65.1656 62.0159 56.5031 61.6221 52.5656C61.4253 50.4 49.219 58.275 48.6284 58.8656C45.0846 62.8031 45.4784 70.6781 49.4159 79.9313C53.3534 89.3813 66.1503 100.997 68.3159 101.194C70.2847 101.391 84.8534 113.203 90.3659 114.188C96.0753 114.975 97.4534 114.581 98.8315 115.763C100.21 116.944 103.163 119.306 104.738 119.306C105.722 119.306 109.857 122.063 112.416 120.684C115.566 120.291 115.566 114.778 115.172 108.872C114.975 103.556 118.322 97.8469 115.763 95.8781Z" fill="#C1875D"/>
<path d="M102.769 114.581C91.941 113.597 58.2754 97.2563 51.5816 79.7344C48.6285 72.0563 52.566 61.0313 52.1723 57.0938C51.9754 54.9281 49.2191 58.275 48.8254 58.6688C45.2816 62.6063 40.9504 73.8281 44.691 83.2781C54.141 107.888 96.666 122.063 104.935 122.063C110.25 122.063 113.204 120.488 113.204 120.488C113.204 120.488 109.857 115.172 102.769 114.581Z" fill="#FFD6BB"/>
<path d="M40.95 15.1594C37.9969 15.5531 36.4219 13.3875 36.4219 13.3875C32.0906 27.1687 17.325 47.6437 11.8125 51.7781C13.5844 54.3375 13.7812 59.0625 13.7812 59.2594C20.8687 52.5656 36.4219 33.8625 40.95 15.1594Z" fill="#DDB199"/>
<path d="M61.0314 53.3531C61.0314 53.3531 68.3158 42.7219 73.4346 28.5469C73.4346 28.5469 69.4971 28.7437 67.3314 26.9719C62.0158 39.9656 51.7783 55.125 51.7783 55.125L61.0314 53.3531Z" fill="#DDB199"/>
<path d="M46.8565 62.4094C47.8409 61.0313 58.4722 56.1094 66.1503 55.5188C91.9409 53.7469 113.4 82.2938 114.778 95.8781C115.172 99.0281 112.022 103.163 112.022 105.722C112.022 112.219 115.172 115.959 115.172 115.959C115.172 115.959 115.369 110.053 117.535 105.919C117.928 105.131 122.063 98.8313 121.866 95.8781C121.669 69.1031 89.1847 45.8719 69.694 47.25C57.6847 48.0375 49.6128 56.3063 48.6284 57.2906C45.2815 60.0469 45.4784 64.3781 46.8565 62.4094Z" fill="#DDB199"/>
</svg>
