<svg width="219" height="202" viewBox="0 0 219 202" fill="none" xmlns="http://www.w3.org/2000/svg">
<path d="M86.553 30.6931L102.665 55.7902C113.135 72.1009 134.647 78.0183 152.882 69.6041L180.94 56.6571C184.35 55.0838 187.476 59.0495 185.049 61.8701L165.08 85.0801C152.102 100.165 152.466 122.003 165.93 136.061L186.646 157.691C189.164 160.319 186.174 164.523 182.716 163.216L154.263 152.464C135.772 145.476 114.485 153.055 104.571 170.158L89.3162 196.473C87.4623 199.671 82.4893 198.302 82.7787 194.674L85.1628 164.819C86.7123 145.416 73.1927 128.262 53.6015 124.774L23.4572 119.407C19.7937 118.755 19.7097 113.706 23.3468 112.77L53.2733 105.071C72.7227 100.067 85.6538 81.8861 83.4599 62.6278L80.0844 32.9959C79.6738 29.3954 84.5952 27.6431 86.553 30.6931Z" fill="#F74B4B"/>
<path d="M112.841 114.754C111.227 115.328 109.376 114.867 108.292 113.613C107.18 112.329 107.034 110.427 107.949 108.956C108.821 107.553 110.509 106.762 112.157 106.98C113.886 107.208 115.302 108.534 115.586 110.208C115.91 112.122 114.743 114.076 112.841 114.754Z" fill="#C11C06"/>
<path d="M102.978 99.4827C102.234 97.3948 103.387 95.0752 105.559 94.3018C107.727 93.5298 110.09 94.5978 110.833 96.6857C111.578 98.7774 110.42 101.095 108.252 101.867C106.08 102.64 103.723 101.574 102.978 99.4827ZM98.3907 86.6001C97.6473 84.5122 98.7996 82.1925 100.972 81.4191C103.14 80.6472 105.503 81.7152 106.246 83.8031C106.989 85.891 105.833 88.2121 103.665 88.984C101.493 89.7574 99.1341 88.688 98.3907 86.6001ZM93.8021 73.7133C93.0587 71.6254 94.211 69.3057 96.383 68.5324C98.5511 67.7604 100.914 68.8284 101.658 70.9163C102.402 73.008 101.245 75.3253 99.0766 76.0972C96.9046 76.8706 94.5469 75.805 93.8021 73.7133ZM89.215 60.8303C88.4702 58.7386 89.6238 56.4227 91.7959 55.6493C93.9639 54.8774 96.3256 55.9416 97.0703 58.0333C97.8138 60.1212 96.6575 62.4423 94.4894 63.2142C92.3174 63.9876 89.9584 62.9182 89.215 60.8303Z" fill="#C11C06"/>
<path d="M89.9015 50.3269C88.2872 50.9017 86.4462 50.4397 85.3585 49.1895C84.2417 47.9062 84.0933 46.0028 85.0097 44.5296C85.8825 43.1265 87.5699 42.3343 89.2183 42.5529C90.9639 42.7842 92.3814 44.1292 92.6542 45.8199C92.9615 47.7234 91.7879 49.6552 89.9015 50.3269Z" fill="#C11C06"/>
<path d="M112.841 114.754C111.228 115.328 109.377 114.867 108.293 113.613C107.181 112.329 107.035 110.427 107.95 108.956C108.822 107.553 110.51 106.761 112.158 106.98C113.887 107.208 115.303 108.534 115.587 110.208C115.911 112.122 114.744 114.076 112.841 114.754Z" fill="#C11C06"/>
<path d="M97.5456 115.93C95.2578 116.079 93.3189 114.4 93.2139 112.179C93.1128 109.956 94.8885 108.032 97.1803 107.881C99.4721 107.73 101.411 109.409 101.512 111.632C101.595 113.456 100.409 115.085 98.7124 115.689C98.3471 115.819 97.9551 115.899 97.5456 115.93C95.2577 116.079 97.9551 115.899 97.5456 115.93ZM83.4143 116.861C81.1226 117.013 79.1836 115.333 79.0826 113.11C78.9828 110.891 80.7572 108.964 83.049 108.813C85.3407 108.662 87.2797 110.341 87.3807 112.564C87.4652 114.392 86.2779 116.017 84.5811 116.621C84.2158 116.751 83.8212 116.836 83.4143 116.861C81.1226 117.013 83.8212 116.836 83.4143 116.861ZM69.283 117.793C66.9952 117.943 65.0537 116.269 64.9526 114.046C64.8515 111.823 66.6272 109.899 68.919 109.748C71.2108 109.597 73.1497 111.276 73.2494 113.495C73.3339 115.323 72.1465 116.948 70.4498 117.552C70.0845 117.682 69.6939 117.766 69.283 117.793C66.995 117.942 69.6939 117.766 69.283 117.793ZM55.1531 118.728C52.8613 118.88 50.9224 117.2 50.8213 114.977C50.7202 112.755 52.4959 110.831 54.7877 110.68C57.0795 110.529 59.0184 112.208 59.1195 114.431C59.2026 116.255 58.0166 117.884 56.3198 118.488C55.9546 118.618 55.5626 118.698 55.1531 118.728C52.8613 118.88 55.5626 118.698 55.1531 118.728Z" fill="#C11C06"/>
<path d="M42.1881 119.419C40.5459 120.004 38.6789 119.514 37.5964 118.226C36.5315 116.958 36.3937 115.099 37.2725 113.657C38.1919 112.148 40.0247 111.34 41.7693 111.685C43.4325 112.015 44.7291 113.368 44.953 115.004C45.2094 116.878 44.0408 118.759 42.1881 119.419Z" fill="#C11C06"/>
<path d="M112.841 114.754C111.228 115.328 109.377 114.867 108.293 113.613C107.181 112.329 107.035 110.427 107.95 108.956C108.822 107.553 110.51 106.761 112.158 106.98C113.887 107.208 115.303 108.534 115.587 110.208C115.911 112.122 114.744 114.076 112.841 114.754Z" fill="#C11C06"/>
<path d="M94.5539 167.99C92.3503 167.419 91.0831 165.215 91.7234 163.061C92.3636 160.906 94.669 159.625 96.8713 160.192C99.071 160.764 100.339 162.972 99.6992 165.126C99.305 166.443 98.2907 167.435 97.0535 167.875C96.2757 168.152 95.4069 168.21 94.5539 167.99C92.3502 167.419 95.4069 168.21 94.5539 167.99ZM98.5 154.711C96.2964 154.14 95.0279 151.932 95.6695 149.782C96.3097 147.627 98.6138 146.342 100.813 146.914C103.017 147.485 104.286 149.693 103.644 151.843C103.251 153.164 102.237 154.156 101 154.596C100.218 154.875 99.353 154.931 98.5 154.711C96.2964 154.14 99.353 154.931 98.5 154.711ZM102.446 141.431C100.242 140.861 98.9738 138.653 99.6141 136.498C100.256 134.348 102.556 133.064 104.759 133.635C106.962 134.202 108.23 136.41 107.59 138.564C107.197 139.884 106.183 140.876 104.946 141.317C104.164 141.595 103.295 141.654 102.446 141.431C100.242 140.861 103.295 141.654 102.446 141.431ZM106.391 128.149C104.187 127.578 102.92 125.374 103.56 123.22C104.201 121.065 106.502 119.786 108.704 120.353C110.908 120.923 112.176 123.131 111.536 125.285C111.142 126.602 110.128 127.594 108.89 128.035C108.109 128.313 107.244 128.369 106.391 128.149C104.187 127.578 107.244 128.369 106.391 128.149Z" fill="#C11C06"/>
<path d="M93.1134 181.156C91.4484 181.749 89.5583 181.235 88.4835 179.911C87.4061 178.585 87.335 176.67 88.3074 175.223C89.2403 173.835 90.9818 173.115 92.6304 173.413C94.3241 173.718 95.6539 175.078 95.8823 176.74C96.1397 178.615 94.9641 180.497 93.1134 181.156Z" fill="#C11C06"/>
<path d="M112.841 114.754C111.228 115.329 109.377 114.867 108.293 113.613C107.181 112.329 107.035 110.427 107.95 108.957C108.822 107.553 110.51 106.762 112.158 106.98C113.887 107.208 115.303 108.534 115.587 110.209C115.911 112.122 114.744 114.077 112.841 114.754Z" fill="#C11C06"/>
<path d="M119.645 105.175C118.318 103.389 118.76 100.862 120.632 99.5306C122.503 98.1993 125.095 98.5678 126.422 100.354C127.749 102.141 127.307 104.668 125.435 105.999C125.102 106.233 124.748 106.418 124.379 106.55C122.682 107.154 120.734 106.642 119.645 105.175C118.319 103.389 120.734 106.642 119.645 105.175ZM131.186 96.9665C129.859 95.18 130.3 92.6532 132.172 91.3218C134.045 89.9943 136.637 90.3629 137.962 92.1455C139.289 93.9321 138.847 96.459 136.976 97.7903C136.644 98.0275 136.288 98.2097 135.919 98.3411C134.222 98.9453 132.275 98.4363 131.186 96.9665C129.859 95.18 132.275 98.4363 131.186 96.9665ZM142.725 88.7572C141.399 86.9707 141.842 84.4475 143.713 83.1163C145.585 81.785 148.176 82.1536 149.503 83.94C150.828 85.7228 150.387 88.2496 148.515 89.581C148.184 89.8182 147.828 90.0004 147.459 90.1317C145.763 90.7362 143.816 90.2276 142.725 88.7572C141.399 86.9705 143.816 90.2276 142.725 88.7572ZM154.267 80.5522C152.94 78.7658 153.382 76.2389 155.253 74.9076C157.125 73.5763 159.717 73.9448 161.043 75.7314C162.37 77.5178 161.929 80.0447 160.057 81.376C159.724 81.6095 159.37 81.7955 159.001 81.9268C157.304 82.531 155.355 82.0183 154.267 80.5522C152.941 78.7657 155.355 82.0183 154.267 80.5522Z" fill="#C11C06"/>
<path d="M170.544 73.7163C168.903 74.3006 167.035 73.8104 165.953 72.5228C164.883 71.2497 164.757 69.4029 165.63 67.9551C166.54 66.4452 168.387 65.6344 170.126 65.9822C171.788 66.3146 173.086 67.6633 173.309 69.3008C173.565 71.176 172.397 73.0564 170.544 73.7163Z" fill="#C11C06"/>
<path d="M112.841 114.754C111.228 115.328 109.377 114.867 108.293 113.613C107.181 112.329 107.035 110.427 107.95 108.956C108.822 107.553 110.51 106.761 112.158 106.979C113.887 107.208 115.303 108.534 115.587 110.208C115.911 112.122 114.744 114.076 112.841 114.754Z" fill="#C11C06"/>
<path d="M154.856 145.486C152.998 144.221 152.586 141.709 153.933 139.874C155.282 138.042 157.874 137.58 159.731 138.845C161.59 140.11 162.001 142.618 160.657 144.452C160.135 145.162 159.425 145.666 158.644 145.945C157.41 146.384 155.994 146.258 154.856 145.486C152.998 144.221 155.994 146.258 154.856 145.486ZM143.404 137.686C141.551 136.424 141.135 133.912 142.483 132.077C143.83 130.242 146.423 129.783 148.281 131.048C150.138 132.309 150.55 134.822 149.207 136.656C148.685 137.366 147.975 137.87 147.193 138.148C145.96 138.587 144.543 138.461 143.404 137.686C141.551 136.424 144.543 138.461 143.404 137.686ZM131.954 129.889C130.1 128.623 129.684 126.111 131.032 124.28C132.379 122.445 134.977 121.985 136.83 123.247C138.687 124.512 139.1 127.025 137.757 128.858C137.235 129.568 136.524 130.073 135.743 130.351C134.51 130.79 133.093 130.664 131.954 129.889C130.1 128.623 133.093 130.664 131.954 129.889ZM120.507 122.091C118.65 120.826 118.233 118.315 119.58 116.48C120.929 114.649 123.525 114.185 125.379 115.451C127.237 116.716 127.653 119.227 126.305 121.058C125.783 121.768 125.073 122.273 124.291 122.551C123.058 122.99 121.641 122.864 120.507 122.091C118.65 120.826 121.641 122.864 120.507 122.091Z" fill="#C11C06"/>
<path d="M170.093 153.747C168.425 154.341 166.542 153.823 165.462 152.502C164.385 151.183 164.317 149.252 165.287 147.814C166.223 146.426 167.959 145.706 169.609 146.001C171.307 146.305 172.627 147.673 172.858 149.331C173.12 151.206 171.944 153.088 170.093 153.747Z" fill="#C11C06"/>
</svg>
