<svg width="429" height="355" viewBox="0 0 429 355" fill="none" xmlns="http://www.w3.org/2000/svg">
<path fill-rule="evenodd" clip-rule="evenodd" d="M329.099 71.7326C343.735 77.7185 366.362 177.673 375.868 222.685C383.046 239.053 384.848 257.902 379.712 276.47C367.85 319.347 323.475 344.489 280.598 332.627C238.631 321.017 213.654 278.261 223.734 236.247C207.802 225.138 195.487 221.13 176.022 222.798C163.165 264.16 119.68 288.109 77.6357 276.478C34.7586 264.616 9.61594 220.241 21.478 177.364C27.3885 155.999 41.3715 139.037 59.2192 128.863C93.4282 92.4896 153.737 30.9169 168.011 33.1076C188.223 36.2099 205.485 62.186 203.619 74.3407C201.754 86.4953 194.416 83.2957 194.416 83.2957C191.209 82.8034 187.771 76.4924 183.948 69.4741C178.656 59.7587 172.626 48.6879 165.446 49.8203C157.995 50.9953 117.156 88.9689 85.9084 119.36C97.1224 117.489 108.913 117.975 120.592 121.206C156.731 131.204 180.272 164.3 179.675 200.128C201.287 198.984 214.301 202.773 232.286 214.728C250.18 183.662 287.399 167.354 323.554 177.356C336.648 180.978 348.088 187.633 357.325 196.351C346.108 153.306 328.875 92.5533 322.698 87.3828C317.124 82.7169 306.257 89.1066 296.72 94.7141C289.831 98.7649 283.636 102.407 280.632 101.179C280.632 101.179 272.694 100.147 277.349 88.7651C282.004 77.3832 310.171 63.9919 329.099 71.7326Z" fill="#090808"/>
<path d="M105.947 162.941L109.293 168.937L21.0002 218.5L20.0002 214C19.376 210.291 19.2989 209.436 19.5003 209.5L105.947 162.941Z" fill="white"/>
<path d="M110.981 173.343L114.164 179.046L24.8674 230.074C23.9024 227.979 22.3689 223.073 22.3689 223.073L110.981 173.343Z" fill="white"/>
<path d="M309.674 219.63L312.465 224.631L224 274C223.662 273.762 223.307 272.207 222.5 268L309.674 219.63Z" fill="white"/>
<path d="M314.121 228.982L317.478 234.998L227.5 285C227.248 285.007 226.474 282.788 225 278.5L314.121 228.982Z" fill="white"/>
</svg>
