<svg width="758" height="586" viewBox="0 0 758 586" fill="none" xmlns="http://www.w3.org/2000/svg">
<path d="M943.496 464.883C951.558 458.896 964.277 459.715 971.838 466.676C979.398 473.636 978.957 484.175 970.895 490.162C852.458 577.834 789.23 543.673 724.723 508.85C505.669 390.571 501.877 684.44 249.529 548.188C198.147 520.436 147.725 493.212 51.5768 564.406C43.5144 570.392 30.7952 569.573 23.2348 562.613C15.6744 555.653 16.1157 545.113 24.1781 539.127C142.615 451.454 205.843 485.616 270.35 520.439C489.404 638.717 493.196 344.849 745.465 481.1C796.926 508.853 847.348 536.077 943.496 464.883ZM33.9053 121.07C25.8429 127.057 13.1237 126.237 5.56328 119.277C-1.99714 112.317 -1.55581 101.778 6.5066 95.7909C124.943 8.11831 188.171 42.28 252.679 77.1029C471.732 195.381 475.524 -98.487 727.794 37.764C779.176 65.5163 829.598 92.7402 925.746 21.5462C933.808 15.5595 946.528 16.3791 954.088 23.3392C961.648 30.2993 961.207 40.8386 953.145 46.8252C834.708 134.498 771.48 100.336 706.973 65.5133C487.997 -52.7645 484.208 241.169 231.857 104.852C180.475 77.0999 130.053 49.876 33.9053 121.07ZM39.7958 268.849C31.7334 274.835 19.0142 274.016 11.4538 267.056C3.89336 260.095 4.33469 249.556 12.3971 243.57C130.834 155.897 194.062 190.059 258.569 224.881C477.623 343.16 481.415 49.2916 733.684 185.543C785.067 213.295 835.488 240.519 931.637 169.325C939.699 163.338 952.418 164.158 959.978 171.118C967.539 178.078 967.098 188.617 959.035 194.604C840.599 282.276 777.371 248.115 712.863 213.292C493.888 95.0141 490.098 388.947 237.748 252.631C186.366 224.878 135.944 197.655 39.7958 268.849ZM45.6863 416.627C37.6239 422.614 24.9047 421.794 17.3443 414.834C9.78386 407.874 10.2252 397.335 18.2876 391.348C136.724 303.675 199.952 337.837 264.46 372.66C483.513 490.938 487.305 197.07 739.575 333.321C790.957 361.073 841.379 388.297 937.527 317.103C945.589 311.117 958.309 311.936 965.869 318.896C973.429 325.856 972.988 336.396 964.926 342.382C846.489 430.055 783.261 395.893 718.754 361.07C499.778 242.793 495.989 536.726 243.638 400.409C192.256 372.657 141.834 345.433 45.6863 416.627Z" fill="#F8E0C4"/>
</svg>
